<svg width="22" height="22" viewBox="0 0 22 22" fill="none" xmlns="http://www.w3.org/2000/svg">
<path d="M10.7445 5.78931C7.71315 5.78931 5.26803 8.19622 5.26803 11.1802C5.26803 14.1642 7.71315 16.5712 10.7445 16.5712C13.7759 16.5712 16.221 14.1642 16.221 11.1802C16.221 8.19622 13.7759 5.78931 10.7445 5.78931ZM10.7445 14.685C8.78557 14.685 7.18409 13.1133 7.18409 11.1802C7.18409 9.2472 8.7808 7.67543 10.7445 7.67543C12.7082 7.67543 14.305 9.2472 14.305 11.1802C14.305 13.1133 12.7035 14.685 10.7445 14.685ZM17.7224 5.56879C17.7224 6.26788 17.1505 6.82621 16.445 6.82621C15.7349 6.82621 15.1677 6.26319 15.1677 5.56879C15.1677 4.8744 15.7396 4.31138 16.445 4.31138C17.1505 4.31138 17.7224 4.8744 17.7224 5.56879ZM21.3496 6.84497C21.2686 5.1606 20.8777 3.6686 19.6242 2.43934C18.3754 1.21007 16.8597 0.825342 15.1486 0.740889C13.3851 0.64236 8.09922 0.64236 6.33568 0.740889C4.62934 0.82065 3.11365 1.20538 1.86011 2.43464C0.606567 3.66391 0.220495 5.15591 0.134701 6.84028C0.0346082 8.57626 0.0346082 13.7795 0.134701 15.5155C0.215728 17.1999 0.606567 18.6919 1.86011 19.9211C3.11365 21.1504 4.62457 21.5351 6.33568 21.6196C8.09922 21.7181 13.3851 21.7181 15.1486 21.6196C16.8597 21.5398 18.3754 21.1551 19.6242 19.9211C20.873 18.6919 21.2638 17.1999 21.3496 15.5155C21.4497 13.7795 21.4497 8.58096 21.3496 6.84497ZM19.0713 17.3782C18.6995 18.2978 17.9798 19.0062 17.0408 19.3769C15.6348 19.9258 12.2983 19.7991 10.7445 19.7991C9.19071 19.7991 5.84952 19.9211 4.44822 19.3769C3.51402 19.0109 2.79431 18.3025 2.41777 17.3782C1.86011 15.9941 1.9888 12.7098 1.9888 11.1802C1.9888 9.6507 1.86487 6.36171 2.41777 4.98231C2.78954 4.06271 3.50925 3.35424 4.44822 2.98359C5.85428 2.43464 9.19071 2.56132 10.7445 2.56132C12.2983 2.56132 15.6395 2.43934 17.0408 2.98359C17.975 3.34955 18.6947 4.05802 19.0713 4.98231C19.6289 6.36641 19.5003 9.6507 19.5003 11.1802C19.5003 12.7098 19.6289 15.9988 19.0713 17.3782Z" fill="white"/>
</svg>
