<svg width="1140" height="172" viewBox="0 0 1140 172" fill="none" xmlns="http://www.w3.org/2000/svg">
<g filter="url(#filter0_b_1_697)">
<rect y="0.303711" width="1140" height="171" rx="8" fill="#101010" fill-opacity="0.4"/>
<rect x="0.5" y="0.803711" width="1139" height="170" rx="7.5" stroke="white" stroke-opacity="0.25"/>
<path d="M118.08 73.1477C118.08 77.5957 114.112 80.0917 109.024 80.0917C103.168 80.0917 99.5843 77.2757 99.5843 73.0197H104.224C104.224 74.9077 105.792 76.2517 109.024 76.2517C111.584 76.2517 113.312 75.0997 113.312 73.2757C113.312 71.6757 112.352 70.9077 110.112 70.4917L106.496 69.7877C102.368 69.0197 100.096 66.8117 100.096 63.3557C100.096 59.4517 103.328 56.4437 108.832 56.4437C113.344 56.4437 117.696 58.3637 117.696 63.4517H113.184C113.184 61.1477 111.296 60.1877 108.768 60.1877C106.336 60.1877 104.8 61.2757 104.8 62.9397C104.8 64.4437 105.728 65.2757 108.192 65.7557L111.84 66.4277C116.096 67.2597 118.08 69.5317 118.08 73.1477ZM136.468 76.5397H137.14V79.8037H134.708C133.236 79.8037 132.02 79.2917 131.668 77.8517C130.74 79.2597 128.82 80.1237 126.356 80.1237C122.676 80.1237 120.308 78.2037 120.308 75.0037C120.308 72.0277 122.292 70.0117 126.548 70.0117H130.996V69.2757C130.996 67.4197 129.812 66.3957 127.956 66.3957C126.1 66.3957 124.852 67.3877 124.788 68.8597H120.724C120.724 65.1157 123.796 62.8437 128.148 62.8437C131.764 62.8437 135.508 64.4757 135.508 69.3717V75.5797C135.508 76.4117 135.924 76.5397 136.468 76.5397ZM130.996 73.5317V72.9237H127.348C125.428 72.9237 124.916 73.8197 124.916 74.7157C124.916 76.0917 126.036 76.6037 127.508 76.6037C129.716 76.6037 130.996 75.5157 130.996 73.5317ZM158.963 62.8437C162.291 62.8437 165.395 64.9557 165.395 69.5637V79.8357H160.883V70.4597C160.883 67.9637 159.699 66.8437 157.875 66.8437C156.115 66.8437 154.771 67.9957 154.707 70.5877V79.8037H150.387V70.6837C150.387 67.9637 149.171 66.8437 147.379 66.8437C145.491 66.8437 144.211 68.0277 144.211 70.4917V79.8037H139.731V63.1637H143.891L144.371 64.9877C145.171 63.6117 146.707 62.8437 148.723 62.8437C150.963 62.8437 152.883 63.7397 153.907 65.6917C154.899 63.7397 156.883 62.8437 158.963 62.8437ZM185.014 71.2277V72.6997H172.982C173.046 75.1637 174.774 76.5397 176.918 76.5397C178.55 76.5397 179.862 75.8037 180.374 74.3637H184.886C184.15 77.8197 180.982 80.1557 176.79 80.1557C171.798 80.1557 168.47 76.6997 168.47 71.4837C168.47 66.2997 171.798 62.8437 176.758 62.8437C181.718 62.8437 185.014 66.1397 185.014 71.2277ZM176.758 66.3317C174.838 66.3317 173.206 67.4517 173.014 69.7557H180.534C180.342 67.4517 178.71 66.3317 176.758 66.3317ZM82.3615 111.148C82.3615 115.596 78.3935 118.092 73.3055 118.092C67.4495 118.092 63.8655 115.276 63.8655 111.02H68.5055C68.5055 112.908 70.0735 114.252 73.3055 114.252C75.8655 114.252 77.5935 113.1 77.5935 111.276C77.5935 109.676 76.6335 108.908 74.3935 108.492L70.7775 107.788C66.6495 107.02 64.3775 104.812 64.3775 101.356C64.3775 97.4517 67.6095 94.4437 73.1135 94.4437C77.6255 94.4437 81.9775 96.3637 81.9775 101.452H77.4655C77.4655 99.1477 75.5775 98.1877 73.0495 98.1877C70.6175 98.1877 69.0815 99.2757 69.0815 100.94C69.0815 102.444 70.0095 103.276 72.4735 103.756L76.1215 104.428C80.3775 105.26 82.3615 107.532 82.3615 111.148ZM91.1808 117.804C87.8848 117.804 86.2848 115.884 86.2848 112.876V105.132H83.7248V101.164H84.9728C85.9968 101.164 86.2848 100.652 86.2848 99.5317V96.6197H90.7648V101.164H94.5728V105.132H90.7648V111.884C90.7648 113.324 91.1488 113.868 92.6208 113.868H94.5728V117.804H91.1808ZM105.832 101.164H108.104V105.164H105.576C102.92 105.164 102.088 106.732 102.088 109.26V117.804H97.5763V101.164H101.768L102.248 103.084C102.792 102.06 103.976 101.164 105.832 101.164ZM125.686 114.54H126.358V117.804H123.926C122.454 117.804 121.238 117.292 120.886 115.852C119.958 117.26 118.038 118.124 115.574 118.124C111.894 118.124 109.526 116.204 109.526 113.004C109.526 110.028 111.51 108.012 115.766 108.012H120.214V107.276C120.214 105.42 119.03 104.396 117.174 104.396C115.318 104.396 114.07 105.388 114.006 106.86H109.942C109.942 103.116 113.014 100.844 117.366 100.844C120.982 100.844 124.726 102.476 124.726 107.372V113.58C124.726 114.412 125.142 114.54 125.686 114.54ZM120.214 111.532V110.924H116.566C114.646 110.924 114.134 111.82 114.134 112.716C114.134 114.092 115.254 114.604 116.726 114.604C118.934 114.604 120.214 113.516 120.214 111.532ZM134.431 117.804C131.135 117.804 129.535 115.884 129.535 112.876V105.132H126.975V101.164H128.223C129.247 101.164 129.535 100.652 129.535 99.5317V96.6197H134.015V101.164H137.823V105.132H134.015V111.884C134.015 113.324 134.399 113.868 135.871 113.868H137.823V117.804H134.431ZM156.576 109.228V110.7H144.544C144.608 113.164 146.336 114.54 148.48 114.54C150.112 114.54 151.424 113.804 151.936 112.364H156.448C155.712 115.82 152.544 118.156 148.352 118.156C143.36 118.156 140.032 114.7 140.032 109.484C140.032 104.3 143.36 100.844 148.32 100.844C153.28 100.844 156.576 104.14 156.576 109.228ZM148.32 104.332C146.4 104.332 144.768 105.452 144.576 107.756H152.096C151.904 105.452 150.272 104.332 148.32 104.332ZM171.926 101.164H175.958V116.46C175.958 121.484 172.598 124.524 167.478 124.524C163.094 124.524 159.926 122.124 159.478 118.508H163.798C164.246 120.14 165.686 120.876 167.51 120.876C170.07 120.876 171.574 119.372 171.574 117.164V115.18C170.678 116.556 168.886 117.42 166.582 117.42C162.134 117.42 159.062 114.188 159.062 109.132C159.062 104.012 162.166 100.844 166.646 100.844C168.982 100.844 170.614 101.74 171.574 103.116L171.926 101.164ZM167.606 113.516C170.006 113.516 171.574 111.724 171.574 109.196C171.574 106.636 170.006 104.812 167.606 104.812C165.238 104.812 163.67 106.636 163.67 109.164C163.67 111.724 165.238 113.516 167.606 113.516ZM179.605 98.6037V94.2837H184.149V98.6037H179.605ZM179.669 117.804V101.164H184.149V117.804H179.669ZM203.951 109.228V110.7H191.919C191.983 113.164 193.711 114.54 195.855 114.54C197.487 114.54 198.799 113.804 199.311 112.364H203.823C203.087 115.82 199.919 118.156 195.727 118.156C190.735 118.156 187.407 114.7 187.407 109.484C187.407 104.3 190.735 100.844 195.695 100.844C200.655 100.844 203.951 104.14 203.951 109.228ZM195.695 104.332C193.775 104.332 192.143 105.452 191.951 107.756H199.471C199.279 105.452 197.647 104.332 195.695 104.332ZM206.113 112.588H210.497C210.529 114.092 211.937 114.924 213.729 114.924C215.489 114.924 216.481 114.316 216.481 113.196C216.481 112.172 215.905 111.596 214.113 111.276L210.913 110.668C207.585 110.06 206.529 108.204 206.529 105.964C206.529 102.86 209.665 100.844 213.537 100.844C217.761 100.844 220.833 102.924 220.833 106.252H216.449C216.417 104.844 215.201 104.044 213.537 104.044C211.905 104.044 210.977 104.748 210.977 105.772C210.977 106.732 211.777 107.148 213.409 107.436L216.545 108.076C219.681 108.716 221.057 110.348 221.057 112.78C221.057 116.364 217.697 118.124 213.793 118.124C209.377 118.124 206.145 115.948 206.113 112.588Z" fill="white"/>
<path d="M285 41.8037L285 129.804" stroke="#A9A9A9"/>
<path d="M403.08 73.1477C403.08 77.5957 399.112 80.0917 394.024 80.0917C388.168 80.0917 384.584 77.2757 384.584 73.0197H389.224C389.224 74.9077 390.792 76.2517 394.024 76.2517C396.584 76.2517 398.312 75.0997 398.312 73.2757C398.312 71.6757 397.352 70.9077 395.112 70.4917L391.496 69.7877C387.368 69.0197 385.096 66.8117 385.096 63.3557C385.096 59.4517 388.328 56.4437 393.832 56.4437C398.344 56.4437 402.696 58.3637 402.696 63.4517H398.184C398.184 61.1477 396.296 60.1877 393.768 60.1877C391.336 60.1877 389.8 61.2757 389.8 62.9397C389.8 64.4437 390.728 65.2757 393.192 65.7557L396.84 66.4277C401.096 67.2597 403.08 69.5317 403.08 73.1477ZM421.468 76.5397H422.14V79.8037H419.708C418.236 79.8037 417.02 79.2917 416.668 77.8517C415.74 79.2597 413.82 80.1237 411.356 80.1237C407.676 80.1237 405.308 78.2037 405.308 75.0037C405.308 72.0277 407.292 70.0117 411.548 70.0117H415.996V69.2757C415.996 67.4197 414.812 66.3957 412.956 66.3957C411.1 66.3957 409.852 67.3877 409.788 68.8597H405.724C405.724 65.1157 408.796 62.8437 413.148 62.8437C416.764 62.8437 420.508 64.4757 420.508 69.3717V75.5797C420.508 76.4117 420.924 76.5397 421.468 76.5397ZM415.996 73.5317V72.9237H412.348C410.428 72.9237 409.916 73.8197 409.916 74.7157C409.916 76.0917 411.036 76.6037 412.508 76.6037C414.716 76.6037 415.996 75.5157 415.996 73.5317ZM443.963 62.8437C447.291 62.8437 450.395 64.9557 450.395 69.5637V79.8357H445.883V70.4597C445.883 67.9637 444.699 66.8437 442.875 66.8437C441.115 66.8437 439.771 67.9957 439.707 70.5877V79.8037H435.387V70.6837C435.387 67.9637 434.171 66.8437 432.379 66.8437C430.491 66.8437 429.211 68.0277 429.211 70.4917V79.8037H424.731V63.1637H428.891L429.371 64.9877C430.171 63.6117 431.707 62.8437 433.723 62.8437C435.963 62.8437 437.883 63.7397 438.907 65.6917C439.899 63.7397 441.883 62.8437 443.963 62.8437ZM470.014 71.2277V72.6997H457.982C458.046 75.1637 459.774 76.5397 461.918 76.5397C463.55 76.5397 464.862 75.8037 465.374 74.3637H469.886C469.15 77.8197 465.982 80.1557 461.79 80.1557C456.798 80.1557 453.47 76.6997 453.47 71.4837C453.47 66.2997 456.798 62.8437 461.758 62.8437C466.718 62.8437 470.014 66.1397 470.014 71.2277ZM461.758 66.3317C459.838 66.3317 458.206 67.4517 458.014 69.7557H465.534C465.342 67.4517 463.71 66.3317 461.758 66.3317ZM356.064 94.7637V117.804H351.488V94.7637H356.064ZM369.484 100.844C373.74 100.844 376.172 103.66 376.172 107.916V117.804H371.66V108.844C371.66 106.092 370.348 104.684 368.172 104.684C365.804 104.684 364.524 106.316 364.524 109.004V117.804H360.044V101.164H364.204L364.46 103.148C365.324 101.772 366.988 100.844 369.484 100.844ZM392.372 93.7717H396.852V117.804H392.692L392.404 115.532C391.572 116.972 389.588 118.124 387.028 118.124C382.26 118.124 379.156 114.796 379.156 109.484C379.156 103.948 382.484 100.844 387.028 100.844C389.524 100.844 391.508 101.836 392.372 103.276V93.7717ZM388.052 114.124C390.452 114.124 392.276 112.396 392.276 109.484C392.276 106.604 390.452 104.844 388.052 104.844C385.556 104.844 383.764 106.636 383.764 109.484C383.764 112.396 385.556 114.124 388.052 114.124ZM400.511 98.6037V94.2837H405.055V98.6037H400.511ZM400.575 117.804V101.164H405.055V117.804H400.575ZM420.058 107.628C419.642 105.708 418.33 104.684 416.666 104.684C414.33 104.684 412.826 106.54 412.826 109.484C412.826 112.716 414.426 114.252 416.538 114.252C418.33 114.252 419.514 113.228 420.058 111.276H424.826C424.026 115.596 420.858 118.156 416.666 118.156C411.641 118.156 408.25 114.7 408.25 109.484C408.25 104.3 411.641 100.844 416.698 100.844C420.922 100.844 424.09 103.276 424.826 107.628H420.058ZM442.968 114.54H443.64V117.804H441.208C439.736 117.804 438.52 117.292 438.168 115.852C437.24 117.26 435.32 118.124 432.856 118.124C429.176 118.124 426.808 116.204 426.808 113.004C426.808 110.028 428.792 108.012 433.048 108.012H437.496V107.276C437.496 105.42 436.312 104.396 434.456 104.396C432.6 104.396 431.352 105.388 431.288 106.86H427.224C427.224 103.116 430.296 100.844 434.648 100.844C438.264 100.844 442.008 102.476 442.008 107.372V113.58C442.008 114.412 442.424 114.54 442.968 114.54ZM437.496 111.532V110.924H433.848C431.928 110.924 431.416 111.82 431.416 112.716C431.416 114.092 432.536 114.604 434.008 114.604C436.216 114.604 437.496 113.516 437.496 111.532ZM451.712 117.804C448.416 117.804 446.816 115.884 446.816 112.876V105.132H444.256V101.164H445.504C446.528 101.164 446.816 100.652 446.816 99.5317V96.6197H451.296V101.164H455.104V105.132H451.296V111.884C451.296 113.324 451.68 113.868 453.152 113.868H455.104V117.804H451.712ZM457.25 109.484C457.25 104.332 460.866 100.812 465.954 100.812C471.042 100.812 474.658 104.332 474.658 109.484C474.658 114.668 471.042 118.124 465.954 118.124C460.866 118.124 457.25 114.668 457.25 109.484ZM461.826 109.452C461.826 112.396 463.458 114.316 465.954 114.316C468.45 114.316 470.082 112.396 470.082 109.452C470.082 106.476 468.45 104.62 465.954 104.62C463.458 104.62 461.826 106.476 461.826 109.452ZM486.145 101.164H488.417V105.164H485.889C483.233 105.164 482.401 106.732 482.401 109.26V117.804H477.889V101.164H482.081L482.561 103.084C483.105 102.06 484.289 101.164 486.145 101.164ZM489.707 112.588H494.091C494.123 114.092 495.531 114.924 497.323 114.924C499.083 114.924 500.075 114.316 500.075 113.196C500.075 112.172 499.499 111.596 497.707 111.276L494.507 110.668C491.179 110.06 490.123 108.204 490.123 105.964C490.123 102.86 493.259 100.844 497.131 100.844C501.355 100.844 504.427 102.924 504.427 106.252H500.043C500.011 104.844 498.795 104.044 497.131 104.044C495.499 104.044 494.571 104.748 494.571 105.772C494.571 106.732 495.371 107.148 497.003 107.436L500.139 108.076C503.275 108.716 504.651 110.348 504.651 112.78C504.651 116.364 501.291 118.124 497.387 118.124C492.971 118.124 489.739 115.948 489.707 112.588Z" fill="white"/>
<path d="M570 41.8037L570 129.804" stroke="#A9A9A9"/>
<path d="M680.533 67.8677C682.965 68.6997 684.245 70.8757 684.245 73.3397C684.245 77.4037 681.205 79.8037 676.373 79.8037H665.941V56.7637H675.701C680.789 56.7637 683.477 59.1317 683.477 62.9717C683.477 64.7957 682.805 66.9397 680.533 67.8677ZM678.805 63.5157C678.805 61.9157 677.749 60.6997 675.381 60.6997H670.517V66.4277H675.541C677.717 66.4277 678.805 65.1477 678.805 63.5157ZM675.957 75.8677C678.165 75.8677 679.445 74.8757 679.445 73.0197C679.445 71.1317 678.133 70.0437 676.053 70.0437H670.517V75.8677H675.957ZM703.217 71.2277V72.6997H691.185C691.249 75.1637 692.977 76.5397 695.121 76.5397C696.753 76.5397 698.065 75.8037 698.577 74.3637H703.089C702.353 77.8197 699.185 80.1557 694.993 80.1557C690.001 80.1557 686.673 76.6997 686.673 71.4837C686.673 66.2997 690.001 62.8437 694.961 62.8437C699.921 62.8437 703.217 66.1397 703.217 71.2277ZM694.961 66.3317C693.041 66.3317 691.409 67.4517 691.217 69.7557H698.737C698.545 67.4517 696.913 66.3317 694.961 66.3317ZM712.259 79.8037C708.963 79.8037 707.363 77.8837 707.363 74.8757V67.1317H704.803V63.1637H706.051C707.075 63.1637 707.363 62.6517 707.363 61.5317V58.6197H711.843V63.1637H715.651V67.1317H711.843V73.8837C711.843 75.3237 712.227 75.8677 713.699 75.8677H715.651V79.8037H712.259ZM724.665 79.8037C721.369 79.8037 719.769 77.8837 719.769 74.8757V67.1317H717.209V63.1637H718.457C719.481 63.1637 719.769 62.6517 719.769 61.5317V58.6197H724.249V63.1637H728.057V67.1317H724.249V73.8837C724.249 75.3237 724.633 75.8677 726.105 75.8677H728.057V79.8037H724.665ZM746.811 71.2277V72.6997H734.779C734.843 75.1637 736.571 76.5397 738.715 76.5397C740.347 76.5397 741.659 75.8037 742.171 74.3637H746.683C745.947 77.8197 742.779 80.1557 738.587 80.1557C733.595 80.1557 730.267 76.6997 730.267 71.4837C730.267 66.2997 733.595 62.8437 738.555 62.8437C743.515 62.8437 746.811 66.1397 746.811 71.2277ZM738.555 66.3317C736.635 66.3317 735.003 67.4517 734.811 69.7557H742.331C742.139 67.4517 740.507 66.3317 738.555 66.3317ZM758.317 63.1637H760.589V67.1637H758.061C755.405 67.1637 754.573 68.7317 754.573 71.2597V79.8037H750.061V63.1637H754.253L754.733 65.0837C755.277 64.0597 756.461 63.1637 758.317 63.1637ZM647.673 113.612H658.169V117.804H643.097V94.7637H647.673V113.612ZM676.467 109.228V110.7H664.435C664.499 113.164 666.227 114.54 668.371 114.54C670.003 114.54 671.315 113.804 671.827 112.364H676.339C675.603 115.82 672.435 118.156 668.243 118.156C663.251 118.156 659.923 114.7 659.923 109.484C659.923 104.3 663.251 100.844 668.211 100.844C673.171 100.844 676.467 104.14 676.467 109.228ZM668.211 104.332C666.291 104.332 664.659 105.452 664.467 107.756H671.987C671.795 105.452 670.163 104.332 668.211 104.332ZM681.661 101.164L686.045 113.26L690.301 101.164H695.101L688.509 117.804H683.421L677.021 101.164H681.661ZM712.279 109.228V110.7H700.247C700.311 113.164 702.039 114.54 704.183 114.54C705.815 114.54 707.127 113.804 707.639 112.364H712.151C711.415 115.82 708.247 118.156 704.055 118.156C699.063 118.156 695.735 114.7 695.735 109.484C695.735 104.3 699.063 100.844 704.023 100.844C708.983 100.844 712.279 104.14 712.279 109.228ZM704.023 104.332C702.103 104.332 700.471 105.452 700.279 107.756H707.799C707.607 105.452 705.975 104.332 704.023 104.332ZM723.785 101.164H726.057V105.164H723.529C720.873 105.164 720.041 106.732 720.041 109.26V117.804H715.529V101.164H719.721L720.201 103.084C720.745 102.06 721.929 101.164 723.785 101.164ZM743.639 114.54H744.311V117.804H741.879C740.407 117.804 739.191 117.292 738.839 115.852C737.911 117.26 735.991 118.124 733.527 118.124C729.847 118.124 727.479 116.204 727.479 113.004C727.479 110.028 729.463 108.012 733.719 108.012H738.167V107.276C738.167 105.42 736.983 104.396 735.127 104.396C733.271 104.396 732.023 105.388 731.959 106.86H727.895C727.895 103.116 730.967 100.844 735.319 100.844C738.935 100.844 742.679 102.476 742.679 107.372V113.58C742.679 114.412 743.095 114.54 743.639 114.54ZM738.167 111.532V110.924H734.519C732.599 110.924 732.087 111.82 732.087 112.716C732.087 114.092 733.207 114.604 734.679 114.604C736.887 114.604 738.167 113.516 738.167 111.532ZM758.91 101.164H762.942V116.46C762.942 121.484 759.582 124.524 754.462 124.524C750.078 124.524 746.91 122.124 746.462 118.508H750.782C751.23 120.14 752.67 120.876 754.494 120.876C757.054 120.876 758.558 119.372 758.558 117.164V115.18C757.662 116.556 755.87 117.42 753.566 117.42C749.118 117.42 746.046 114.188 746.046 109.132C746.046 104.012 749.15 100.844 753.63 100.844C755.966 100.844 757.598 101.74 758.558 103.116L758.91 101.164ZM754.59 113.516C756.99 113.516 758.558 111.724 758.558 109.196C758.558 106.636 756.99 104.812 754.59 104.812C752.222 104.812 750.654 106.636 750.654 109.164C750.654 111.724 752.222 113.516 754.59 113.516ZM782.717 109.228V110.7H770.685C770.749 113.164 772.477 114.54 774.621 114.54C776.253 114.54 777.565 113.804 778.077 112.364H782.589C781.853 115.82 778.685 118.156 774.493 118.156C769.501 118.156 766.173 114.7 766.173 109.484C766.173 104.3 769.501 100.844 774.461 100.844C779.421 100.844 782.717 104.14 782.717 109.228ZM774.461 104.332C772.541 104.332 770.909 105.452 770.717 107.756H778.237C778.045 105.452 776.413 104.332 774.461 104.332Z" fill="white"/>
<path d="M855 41.8037L855 129.804" stroke="#A9A9A9"/>
<path d="M973.579 71.2597L968.331 75.6117H977.963V79.8037H962.123V75.7397L970.699 68.4117C972.427 66.8757 973.419 65.7877 973.451 64.1237C973.515 61.8517 972.075 60.6037 969.867 60.6037C967.723 60.6037 966.187 62.1077 966.091 64.3477H961.771C961.867 59.2597 965.547 56.4437 969.899 56.4437C974.571 56.4437 978.155 59.0037 978.155 63.7397C978.155 67.0997 976.203 69.1477 973.579 71.2597ZM990.516 79.8037V75.5797H979.86V71.6437L990.292 56.7637H995.06V71.6437H998.1V75.5797H995.06V79.8037H990.516ZM984.34 71.6437H990.516V63.0677L984.34 71.6437ZM999.326 79.8037L1004.93 71.1957L999.23 63.1637H1004.48L1008.06 68.6037L1011.61 63.1637H1016.89L1011.2 71.1317L1016.8 79.8037H1011.61L1008.06 73.9157L1004.51 79.8037H999.326ZM1028.45 60.6677H1017.7V56.7637H1033.76V60.3797C1028.96 66.4277 1025.98 73.5957 1025.15 79.8037H1020.7C1021.47 73.5957 1024.48 66.5237 1028.45 60.6677ZM950.712 98.7957V117.804H946.168V98.7957H939V94.7637H957.88V98.7957H950.712ZM966.942 101.164H969.214V105.164H966.686C964.03 105.164 963.198 106.732 963.198 109.26V117.804H958.686V101.164H962.878L963.358 103.084C963.902 102.06 965.086 101.164 966.942 101.164ZM986.796 114.54H987.468V117.804H985.036C983.564 117.804 982.348 117.292 981.996 115.852C981.068 117.26 979.148 118.124 976.684 118.124C973.004 118.124 970.636 116.204 970.636 113.004C970.636 110.028 972.62 108.012 976.876 108.012H981.324V107.276C981.324 105.42 980.14 104.396 978.284 104.396C976.428 104.396 975.18 105.388 975.116 106.86H971.052C971.052 103.116 974.124 100.844 978.476 100.844C982.092 100.844 985.836 102.476 985.836 107.372V113.58C985.836 114.412 986.252 114.54 986.796 114.54ZM981.324 111.532V110.924H977.676C975.756 110.924 975.244 111.82 975.244 112.716C975.244 114.092 976.364 114.604 977.836 114.604C980.044 114.604 981.324 113.516 981.324 111.532ZM1002.39 93.7717H1006.87V117.804H1002.71L1002.42 115.532C1001.59 116.972 999.603 118.124 997.043 118.124C992.275 118.124 989.171 114.796 989.171 109.484C989.171 103.948 992.499 100.844 997.043 100.844C999.539 100.844 1001.52 101.836 1002.39 103.276V93.7717ZM998.067 114.124C1000.47 114.124 1002.29 112.396 1002.29 109.484C1002.29 106.604 1000.47 104.844 998.067 104.844C995.571 104.844 993.779 106.636 993.779 109.484C993.779 112.396 995.571 114.124 998.067 114.124ZM1010.53 98.6037V94.2837H1015.07V98.6037H1010.53ZM1010.59 117.804V101.164H1015.07V117.804H1010.59ZM1028.25 100.844C1032.51 100.844 1034.94 103.66 1034.94 107.916V117.804H1030.43V108.844C1030.43 106.092 1029.11 104.684 1026.94 104.684C1024.57 104.684 1023.29 106.316 1023.29 109.004V117.804H1018.81V101.164H1022.97L1023.23 103.148C1024.09 101.772 1025.75 100.844 1028.25 100.844ZM1050.79 101.164H1054.82V116.46C1054.82 121.484 1051.46 124.524 1046.34 124.524C1041.95 124.524 1038.79 122.124 1038.34 118.508H1042.66C1043.11 120.14 1044.55 120.876 1046.37 120.876C1048.93 120.876 1050.43 119.372 1050.43 117.164V115.18C1049.54 116.556 1047.75 117.42 1045.44 117.42C1040.99 117.42 1037.92 114.188 1037.92 109.132C1037.92 104.012 1041.03 100.844 1045.51 100.844C1047.84 100.844 1049.47 101.74 1050.43 103.116L1050.79 101.164ZM1046.47 113.516C1048.87 113.516 1050.43 111.724 1050.43 109.196C1050.43 106.636 1048.87 104.812 1046.47 104.812C1044.1 104.812 1042.53 106.636 1042.53 109.164C1042.53 111.724 1044.1 113.516 1046.47 113.516Z" fill="white"/>
</g>
<defs>
<filter id="filter0_b_1_697" x="-52.5" y="-52.1963" width="1245" height="276" filterUnits="userSpaceOnUse" color-interpolation-filters="sRGB">
<feFlood flood-opacity="0" result="BackgroundImageFix"/>
<feGaussianBlur in="BackgroundImageFix" stdDeviation="26.25"/>
<feComposite in2="SourceAlpha" operator="in" result="effect1_backgroundBlur_1_697"/>
<feBlend mode="normal" in="SourceGraphic" in2="effect1_backgroundBlur_1_697" result="shape"/>
</filter>
</defs>
</svg>
